<svg width="192" height="192" viewBox="0 0 192 192" fill="none" xmlns="http://www.w3.org/2000/svg">
<rect width="192" height="192" fill="white"/>
<path d="M105.574 49.2444C109.091 50.6925 117.892 56.4475 120.059 61.4887C122.933 68.1778 122.813 69.4804 123.575 77.1684C125.066 92.2 125.186 113.961 125.333 126.728C117.163 127.571 108.966 127.145 101.511 126.756C87.637 126.031 76.1146 124.257 70.5778 122.739C70.801 110.15 71.5904 84.4136 71.8336 82.933C72.1685 80.8939 69.7405 55.007 96.8671 49.2444C98.4021 50.1605 102.292 51.4431 105.574 49.2444Z" fill="url(#paint0_linear_1_3)"/>
<path d="M126.4 77.1556C125.547 59.4489 113.304 50.9926 107.289 48.9778C108.569 47.9111 112.681 47.4667 114.578 47.3778C124.948 47.9111 147.431 52.3911 154.4 66.0444C161.369 79.6978 160.444 103.911 159.111 114.311C154.932 119.131 149.974 121.364 144.978 123.2C138.328 125.644 131.748 126.772 128.178 126.4C127.941 117.363 127.253 94.8622 126.4 77.1556Z" fill="url(#paint1_linear_1_3)"/>
<path d="M99.4666 48.1778L96.3555 49.3333C91.2157 49.8851 87.7333 51.5556 84.6222 53.2443C82.7566 54.4141 81.0393 55.773 79.2 57.2444C75.1111 61.4222 73.6286 63.8049 72.6222 65.1556C71.747 66.3302 70.4837 70.82 69.8666 75.2889C68.9778 88.2667 67.8661 109.604 67.8222 122.578C63.7749 122.404 60.8286 120.829 58.5778 119.556C53.4728 116.667 52.3138 112.506 52.6222 109.689C53.6889 108.196 53.0666 90.4593 52.6222 81.7778C52 76.7704 53.1733 64.7467 62.8444 56.7111C72.5155 48.6756 91.2889 47.6741 99.4666 48.1778Z" fill="url(#paint2_linear_1_3)"/>
<path d="M70.4 124.8C53.0489 122.169 50.4889 114.163 51.3778 110.489C50.0445 110.489 48.1778 112.978 26.7556 120.178C5.33335 127.378 17.9185 134.476 20.5333 135.556C24.6222 137.244 70.4 151.556 98.0445 146.133C120.16 141.796 134.756 131.467 139.289 126.844C110.578 130.311 92.0889 128.089 70.4 124.8Z" fill="url(#paint3_linear_1_3)"/>
<ellipse cx="104.113" cy="48.377" rx="9.17401" ry="3.19096" transform="rotate(2.26952 104.113 48.377)" fill="#111111"/>
<ellipse cx="104.145" cy="47.5799" rx="9.17401" ry="2.79209" transform="rotate(2.26952 104.145 47.5799)" fill="#626262"/>
<defs>
<linearGradient id="paint0_linear_1_3" x1="97.9555" y1="49.2444" x2="97.9555" y2="127.215" gradientUnits="userSpaceOnUse">
<stop stop-color="#3A3A3A"/>
<stop offset="1" stop-color="#1E1E1E"/>
</linearGradient>
<linearGradient id="paint1_linear_1_3" x1="116.978" y1="47.4667" x2="156.622" y2="117.156" gradientUnits="userSpaceOnUse">
<stop offset="0.515625" stop-color="#3C3C3C"/>
<stop offset="1" stop-color="#1E1E1E"/>
</linearGradient>
<linearGradient id="paint2_linear_1_3" x1="87.3778" y1="48" x2="54.4889" y2="117.956" gradientUnits="userSpaceOnUse">
<stop stop-color="#404040"/>
<stop offset="1" stop-color="#111111"/>
</linearGradient>
<linearGradient id="paint3_linear_1_3" x1="76.8862" y1="110.489" x2="27.8222" y2="134.756" gradientUnits="userSpaceOnUse">
<stop stop-color="#383838"/>
<stop offset="1" stop-color="#626262"/>
</linearGradient>
</defs>
</svg>
