<svg width="384" height="384" viewBox="0 0 384 384" fill="none" xmlns="http://www.w3.org/2000/svg">
<rect width="384" height="384" fill="white"/>
<path d="M211.149 98.4889C218.182 101.385 235.785 112.895 240.117 122.977C245.867 136.356 245.625 138.961 247.15 154.337C250.132 184.4 250.371 227.922 250.667 253.456C234.326 255.142 217.932 254.29 203.022 253.511C175.274 252.062 152.229 248.514 141.156 245.477C141.602 220.299 143.181 168.827 143.667 165.866C144.337 161.788 139.481 110.014 193.734 98.4889C196.804 100.321 204.585 102.886 211.149 98.4889Z" fill="url(#paint0_linear_2_31)"/>
<path d="M252.8 154.311C251.093 118.898 226.607 101.985 214.578 97.9556C217.138 95.8222 225.363 94.9333 229.156 94.7556C249.896 95.8222 294.862 104.782 308.8 132.089C322.738 159.396 320.889 207.822 318.222 228.622C309.864 238.262 299.948 242.727 289.956 246.4C276.656 251.289 263.495 253.544 256.356 252.8C255.881 234.726 254.507 189.724 252.8 154.311Z" fill="url(#paint1_linear_2_31)"/>
<path d="M198.933 96.3556L192.711 98.6667C182.431 99.7701 175.467 103.111 169.244 106.489C165.513 108.828 162.079 111.546 158.4 114.489C150.222 122.844 147.257 127.61 145.244 130.311C143.494 132.66 140.967 141.64 139.733 150.578C137.956 176.533 135.732 219.208 135.644 245.156C127.55 244.807 121.657 241.659 117.156 239.111C106.946 233.333 104.628 225.012 105.244 219.378C107.378 216.391 106.133 180.919 105.244 163.556C104 153.541 106.347 129.493 125.689 113.422C145.031 97.3511 182.578 95.3481 198.933 96.3556Z" fill="url(#paint2_linear_2_31)"/>
<path d="M140.8 249.6C106.098 244.338 100.978 228.326 102.756 220.978C100.089 220.978 96.3555 225.956 53.5111 240.356C10.6666 254.756 35.8369 268.951 41.0666 271.111C49.2444 274.489 140.8 303.111 196.089 292.267C240.32 283.591 269.511 262.933 278.578 253.689C221.156 260.622 184.178 256.178 140.8 249.6Z" fill="url(#paint3_linear_2_31)"/>
<ellipse cx="208.227" cy="96.7541" rx="18.348" ry="6.38192" transform="rotate(2.26952 208.227 96.7541)" fill="#111111"/>
<ellipse cx="208.29" cy="95.1599" rx="18.348" ry="5.58418" transform="rotate(2.26952 208.29 95.1599)" fill="#626262"/>
<defs>
<linearGradient id="paint0_linear_2_31" x1="195.911" y1="98.4889" x2="195.911" y2="254.431" gradientUnits="userSpaceOnUse">
<stop stop-color="#3A3A3A"/>
<stop offset="1" stop-color="#1E1E1E"/>
</linearGradient>
<linearGradient id="paint1_linear_2_31" x1="233.956" y1="94.9333" x2="313.244" y2="234.311" gradientUnits="userSpaceOnUse">
<stop offset="0.515625" stop-color="#3C3C3C"/>
<stop offset="1" stop-color="#1E1E1E"/>
</linearGradient>
<linearGradient id="paint2_linear_2_31" x1="174.756" y1="96" x2="108.978" y2="235.911" gradientUnits="userSpaceOnUse">
<stop stop-color="#404040"/>
<stop offset="1" stop-color="#111111"/>
</linearGradient>
<linearGradient id="paint3_linear_2_31" x1="153.772" y1="220.978" x2="55.6444" y2="269.511" gradientUnits="userSpaceOnUse">
<stop stop-color="#383838"/>
<stop offset="1" stop-color="#626262"/>
</linearGradient>
</defs>
</svg>
