<svg width="512" height="512" viewBox="0 0 512 512" fill="none" xmlns="http://www.w3.org/2000/svg">
<rect width="512" height="512" fill="white"/>
<path d="M281.532 131.319C290.909 135.18 314.379 150.527 320.157 163.97C327.822 181.807 327.501 185.281 329.534 205.782C333.509 245.867 333.828 303.896 334.222 337.941C312.435 340.189 290.576 339.053 270.696 338.015C233.699 336.083 202.972 331.352 188.207 327.303C188.803 293.733 190.908 225.103 191.556 221.155C192.449 215.717 185.975 146.685 258.312 131.319C262.406 133.761 272.78 137.181 281.532 131.319Z" fill="url(#paint0_linear_2_40)"/>
<path d="M337.067 205.748C334.791 158.53 302.143 135.98 286.104 130.607C289.517 127.763 300.484 126.578 305.541 126.341C333.195 127.763 393.15 139.71 411.733 176.119C430.317 212.527 427.852 277.096 424.296 304.83C413.151 317.683 399.93 323.636 386.607 328.533C368.874 335.052 351.327 338.059 341.807 337.067C341.175 312.968 339.342 252.966 337.067 205.748Z" fill="url(#paint1_linear_2_40)"/>
<path d="M265.244 128.474L256.948 131.556C243.242 133.027 233.956 137.481 225.659 141.985C220.684 145.104 216.105 148.728 211.2 152.652C200.296 163.793 196.343 170.146 193.659 173.748C191.325 176.88 187.957 188.853 186.311 200.77C183.941 235.378 180.976 292.277 180.859 326.874C170.066 326.41 162.21 322.211 156.207 318.815C142.594 311.111 139.503 300.016 140.326 292.504C143.17 288.521 141.511 241.225 140.326 218.074C138.667 204.721 141.796 172.658 167.585 151.23C193.375 129.801 243.437 127.131 265.244 128.474Z" fill="url(#paint2_linear_2_40)"/>
<path d="M187.733 332.8C141.464 325.784 134.637 304.435 137.007 294.637C133.452 294.637 128.474 301.274 71.3482 320.474C14.2222 339.674 47.7826 358.601 54.7556 361.481C65.6593 365.985 187.733 404.148 261.452 389.689C320.427 378.121 359.348 350.578 371.437 338.252C294.874 347.496 245.57 341.57 187.733 332.8Z" fill="url(#paint3_linear_2_40)"/>
<ellipse cx="277.635" cy="129.005" rx="24.464" ry="8.50923" transform="rotate(2.26952 277.635 129.005)" fill="#111111"/>
<ellipse cx="277.72" cy="126.88" rx="24.464" ry="7.44557" transform="rotate(2.26952 277.72 126.88)" fill="#626262"/>
<defs>
<linearGradient id="paint0_linear_2_40" x1="261.215" y1="131.319" x2="261.215" y2="339.241" gradientUnits="userSpaceOnUse">
<stop stop-color="#3A3A3A"/>
<stop offset="1" stop-color="#1E1E1E"/>
</linearGradient>
<linearGradient id="paint1_linear_2_40" x1="311.941" y1="126.578" x2="417.659" y2="312.415" gradientUnits="userSpaceOnUse">
<stop offset="0.515625" stop-color="#3C3C3C"/>
<stop offset="1" stop-color="#1E1E1E"/>
</linearGradient>
<linearGradient id="paint2_linear_2_40" x1="233.007" y1="128" x2="145.304" y2="314.548" gradientUnits="userSpaceOnUse">
<stop stop-color="#404040"/>
<stop offset="1" stop-color="#111111"/>
</linearGradient>
<linearGradient id="paint3_linear_2_40" x1="205.03" y1="294.637" x2="74.1926" y2="359.348" gradientUnits="userSpaceOnUse">
<stop stop-color="#383838"/>
<stop offset="1" stop-color="#626262"/>
</linearGradient>
</defs>
</svg>
